<svg xmlns="http://www.w3.org/2000/svg" viewBox="0 0 2009 517" role="img" aria-label="First Church — First United Methodist Church of Seattle" fill="#000" fill-rule="evenodd">
  <title>First Church — First United Methodist Church of Seattle</title>
  <g id="wordmark">
    <path transform="translate(11.000 334.000) scale(0.405000 -0.405000)" d="M86.6490692706744 0V710H554.2355813243821V637.0674397314617H168.40372291730242V390.76197741837046H493.76441867561795V322.240463838877H168.40372291730242V0Z"/>
    <path transform="translate(221.125 334.000) scale(0.405000 -0.405000)" d="M72.53127860848338 0V521.646628013427H152.52151357949344V0ZM72.53127860848338 623.8870918523039V730H152.52151357949344V623.8870918523039Z"/>
    <path transform="translate(285.450 334.000) scale(0.405000 -0.405000)" d="M342.1705828501678 451.36069575831556Q275.34604821483066 450.1251144339335 224.43378089716205 416.0938358254501Q173.52151357949344 382.06255721696675 152.52151357949344 322.70674397314616V0H72.53127860848338V521.646628013427H147.2282575526396V399.1153494049436Q174.2282575526396 453.23314006713457 218.84604821483063 486.9687213915166Q263.46383887702166 520.7043027158987 312.6994202014037 524.9398840402807Q322.6994202014037 525.0576747024718 329.87610619469024 525.1165700335673Q337.0527921879768 525.1754653646628 342.1705828501678 524.2932560268538Z"/>
    <path transform="translate(403.640 334.000) scale(0.405000 -0.405000)" d="M248.23314006713457 -10Q183.93988404028073 -10 127.76441867561795 11.382209337808973Q71.58895331095515 32.76441867561795 30.824534635337198 75.76441867561795L62.58651205370766 131.99267622825755Q106.99755874275252 90.34604821483063 151.8797680805615 72.2282575526396Q196.76197741837046 54.11046689044858 244.70430271589868 54.11046689044858Q301.4134879462923 54.11046689044858 337.06255721696675 76.14174549893195Q372.7116264876411 98.17302410741532 372.7116264876411 140.41104668904487Q372.7116264876411 170.4711626487641 354.7993591699725 185.35459261519682Q336.8870918523039 200.23802258162954 303.88587122368017 210.20918523039364Q270.8846505950564 220.18034787915778 225.23558132438205 232.2981385413488Q171.35337198657308 247.9447665547757 134.53005797985963 265.296917912725Q97.70674397314617 282.6490692706744 78.88342996643271 309.06011595971927Q60.060115959719255 335.4711626487641 60.060115959719255 376.4711626487641Q60.060115959719255 426.70674397314616 86.00122062862374 460.9122673176686Q111.94232529752823 495.11779066219106 156.9711626487641 512.8233140067134Q202 530.5288373512359 258.93988404028073 530.5288373512359Q317.5288373512359 530.5288373512359 364.2343606957583 512.1165700335673Q410.93988404028073 493.7043027158987 442.93744278303325 459.0576747024718L405.5288373512359 404.3005797985963Q375.9423252975282 436.18278913640523 338.23558132438205 451.74168446750076Q300.5288373512359 467.3005797985963 254.0576747024718 467.3005797985963Q225.17302410741533 467.3005797985963 197.99511748550503 460.0349404943546Q170.81721086359477 452.7693011901129 153.2282575526396 435.0324992371071Q135.63930424168447 417.2956972841013 135.63930424168447 385.6466280134269Q135.63930424168447 359.5865120537077 149.31599023497103 344.55645407384804Q162.99267622825755 329.5263960939884 190.02273420811719 319.40860543179735Q217.05279218797682 309.29081476960636 256.2306988098871 297.29081476960636Q315.5840707964602 280.6441867561794 359.2607567897467 263.87976808056146Q402.93744278303325 247.11534940494354 426.93744278303325 220.4098260604211Q450.93744278303325 193.70430271589868 450.93744278303325 146.0576747024718Q450.93744278303325 72.76441867561795 395.2908147696063 31.382209337808973Q339.6441867561794 -10 248.23314006713457 -10Z"/>
    <path transform="translate(573.670 334.000) scale(0.405000 -0.405000)" d="M334.52151357949344 25.764418675617943Q324.81721086359477 21.353371986573084 306.58285016783645 13.412267317668599Q288.34848947207814 5.471162648764114 263.81965212084225 -0.6466280134269144Q239.29081476960636 -6.764418675617943 211.29081476960636 -6.764418675617943Q180.23314006713457 -6.764418675617943 153.99877937137626 4.558895331095514Q127.76441867561795 15.882209337808971 112.17668599328655 39.616570033567285Q96.58895331095515 63.350930729325604 96.58895331095515 98.81965212084224V458.4183704607873H25.117790662191027V521.646628013427H96.58895331095515V696.4711626487641H176.5791882819652V521.646628013427H294.52151357949344V458.4183704607873H176.5791882819652V122.63930424168447Q178.5791882819652 94.52151357949344 196.05035093072934 80.78593225511139Q213.52151357949344 67.05035093072932 236.87488556606652 67.05035093072932Q263.93500152578576 67.05035093072932 286.1705828501678 76.40372291730242Q308.4061641745499 85.7570949038755 314.6994202014037 89.40372291730242Z"/>
    <path transform="translate(794.000 334.000) scale(0.405000 -0.405000)" d="M40.060115959719255 360Q40.060115959719255 424.88220933780894 62.560115959719255 487.38220933780894Q85.06011595971925 549.882209337809 128.50122062862374 601.382209337809Q171.9423252975282 652.882209337809 234.8245346353372 683.4411046689045Q297.70674397314616 714 377.70674397314616 714Q472.70674397314616 714 540.4711626487641 670.5Q608.2355813243821 627 641.117790662191 559L576.2429050961246 517.7116264876412Q554.5361611229783 563.5361611229783 521.1527311565457 590.566219102838Q487.7693011901129 617.5962770826976 449.32697589258464 628.8907537381751Q410.8846505950564 640.1852303936528 373.70674397314616 640.1852303936528Q312.93988404028073 640.1852303936528 265.9675007628929 615.5962770826976Q218.99511748550503 591.0073237717424 186.93500152578576 549.9472078120232Q154.87488556606652 508.8870918523039 138.7859322551114 458.20918523039364Q122.69697894415623 407.5312786084834 122.69697894415623 356.11779066219106Q122.69697894415623 299.5865120537077 141.8448275862069 247.34971010070188Q160.99267622825755 195.11290814769606 195.17058285016782 155.05279218797682Q229.3484894720781 114.99267622825755 275.76197741837046 91.40372291730242Q322.1754653646628 67.81476960634727 376.70674397314616 67.81476960634727Q414.8846505950564 67.81476960634727 455.06255721696675 81.16814159292036Q495.240463838877 94.52151357949344 530.3005797985962 122.6693622215441Q565.3606957583155 150.81721086359477 586.1852303936528 195.75953616112298L654.5889533109552 159Q632.353371986573 106 586.353371986573 69.0Q540.353371986573 32 483.9711626487641 13.0Q427.58895331095516 -6 372.70674397314616 -6Q299.8245346353372 -6 238.88342996643271 25.5Q177.9423252975282 57 133.4423252975282 109.5Q88.94232529752823 162 64.50122062862374 227.5Q40.060115959719255 293 40.060115959719255 360Z"/>
    <path transform="translate(1040.720 334.000) scale(0.405000 -0.405000)" d="M519.641745498932 0H439.65151052792186V291.6466280134269Q439.65151052792186 374.9447665547757 410.20918523039364 416.7116264876411Q380.76685993286543 458.47848642050656 325.6466280134269 458.47848642050656Q289.9975587427525 458.47848642050656 254.2018614586512 439.83063777845587Q218.4061641745499 421.18278913640523 191.5816295392127 389.50488251449497Q164.7570949038755 357.8269758925847 152.52151357949344 316.5312786084834V0H72.53127860848338V730H152.52151357949344V407.0552334452243Q183.63930424168447 464.1153494049436 237.84604821483066 497.32209337808973Q292.0527921879768 530.5288373512359 354.6417454989319 530.5288373512359Q400.93500152578576 530.5288373512359 432.3172108635947 514.2055233445224Q463.6994202014037 497.88220933780894 482.93500152578576 467.8233140067134Q502.1705828501678 437.76441867561795 510.9061641745499 397.7343606957583Q519.641745498932 357.7043027158987 519.641745498932 309.29081476960636Z"/>
    <path transform="translate(1248.155 334.000) scale(0.405000 -0.405000)" d="M67.41348794629234 211.23802258162954V521.646628013427H147.40372291730242V226.23558132438205Q147.40372291730242 142.7018614586512 176.40494354592616 101.0527921879768Q205.4061641745499 59.40372291730241 262.6441867561794 59.40372291730241Q300.29325602685384 59.40372291730241 335.2656393042417 75.78715288373512Q370.23802258162954 92.17058285016783 398.1214525480623 122.52517546536467Q426.00488251449497 152.8797680805615 441.00488251449497 194.29325602685384V521.646628013427H520.995117485505V92.9325602685383Q520.995117485505 77.7570949038755 527.2595361611229 70.49267622825755Q533.5239548367409 63.22825755263961 547.5816295392127 62.34604821483064V0Q533.641745498932 -1.7644186756179432 525.7895941409827 -2.146628013426915Q517.9374427830332 -2.5288373512358864 510.6441867561794 -2.4110466890448583Q487.41104668904484 -1.9398840402807442 470.82453463533716 12.971162648764114Q454.23802258162954 27.882209337808973 453.3558132438206 49.70430271589869L451.59139456820265 114.35581324382056Q417.59139456820265 55.53127860848337 359.67912725053407 22.765639304241684Q301.76685993286543 -10 233.53127860848338 -10Q151.53127860848338 -10 109.47238327738785 46.03005797985963Q67.41348794629234 102.06011595971925 67.41348794629234 211.23802258162954Z"/>
    <path transform="translate(1460.045 334.000) scale(0.405000 -0.405000)" d="M342.1705828501678 451.36069575831556Q275.34604821483066 450.1251144339335 224.43378089716205 416.0938358254501Q173.52151357949344 382.06255721696675 152.52151357949344 322.70674397314616V0H72.53127860848338V521.646628013427H147.2282575526396V399.1153494049436Q174.2282575526396 453.23314006713457 218.84604821483063 486.9687213915166Q263.46383887702166 520.7043027158987 312.6994202014037 524.9398840402807Q322.6994202014037 525.0576747024718 329.87610619469024 525.1165700335673Q337.0527921879768 525.1754653646628 342.1705828501678 524.2932560268538Z"/>
    <path transform="translate(1574.735 334.000) scale(0.405000 -0.405000)" d="M301.41104668904484 -10Q243.35337198657308 -10 195.20674397314616 11.5Q147.06011595971927 33 111.61901129081477 70.94110466890449Q76.17790662191028 108.88220933780897 56.67790662191028 157.88220933780897Q37.17790662191028 206.88220933780897 37.17790662191028 262Q37.17790662191028 336.11779066219106 70.17790662191028 397.0Q103.17790662191028 457.88220933780894 162.8245346353372 494.2055233445224Q222.4711626487641 530.5288373512359 300.41104668904484 530.5288373512359Q375.9975587427525 530.5288373512359 432.8497101007018 496.5Q489.7018614586512 462.4711626487641 517.4662801342691 404.8245346353372L439.240463838877 380.18034787915775Q418.65151052792186 418.4760451632591 381.23802258162954 439.8005797985963Q343.8245346353372 461.1251144339335 298.29325602685384 461.1251144339335Q248.5263960939884 461.1251144339335 207.61290814769606 435.2416844675008Q166.6994202014037 409.3582545010681 142.815990234971 364.4447665547757Q118.9325602685383 319.5312786084834 118.9325602685383 262Q118.9325602685383 205.46872139151662 143.315990234971 159.43744278303325Q167.6994202014037 113.4061641745499 208.67180347879156 86.40494354592616Q249.64418675617944 59.40372291730241 299.29325602685384 59.40372291730241Q331.4711626487641 59.40372291730241 361.2079646017699 70.93378089716204Q390.9447665547757 82.46383887702166 413.2693011901129 101.72947818126335Q435.5938358254501 120.99511748550503 443.5938358254501 143.7018614586512L521.8196521208422 120.05767470247177Q506.40860543179735 82.41104668904485 474.08529142508394 53.0877326823314Q441.76197741837046 23.764418675617943 397.6153494049436 6.8822093378089715Q353.4687213915166 -10 301.41104668904484 -10Z"/>
    <path transform="translate(1767.995 334.000) scale(0.405000 -0.405000)" d="M519.641745498932 0H439.65151052792186V291.6466280134269Q439.65151052792186 374.9447665547757 410.20918523039364 416.7116264876411Q380.76685993286543 458.47848642050656 325.6466280134269 458.47848642050656Q289.9975587427525 458.47848642050656 254.2018614586512 439.83063777845587Q218.4061641745499 421.18278913640523 191.5816295392127 389.50488251449497Q164.7570949038755 357.8269758925847 152.52151357949344 316.5312786084834V0H72.53127860848338V730H152.52151357949344V407.0552334452243Q183.63930424168447 464.1153494049436 237.84604821483066 497.32209337808973Q292.0527921879768 530.5288373512359 354.6417454989319 530.5288373512359Q400.93500152578576 530.5288373512359 432.3172108635947 514.2055233445224Q463.6994202014037 497.88220933780894 482.93500152578576 467.8233140067134Q502.1705828501678 437.76441867561795 510.9061641745499 397.7343606957583Q519.641745498932 357.7043027158987 519.641745498932 309.29081476960636Z"/>
  </g>
  <g id="subtitle">
    <path transform="translate(29.000 487.000) scale(0.117900 -0.117900)" d="M91.26731766859933 0V710H554.8953310955142V656.8599328654257H149.9307293256027V384.4943545926152H493.10466890448583V334.11595971925544H149.9307293256027V0Z"/>
    <path transform="translate(92.693 487.000) scale(0.117900 -0.117900)" d="M76.81965212084224 0V520.6570033567288H134.37839487335978V0ZM76.81965212084224 634.7729630759841V730H134.37839487335978V634.7729630759841Z"/>
    <path transform="translate(111.467 487.000) scale(0.117900 -0.117900)" d="M328.6457125419591 469.1739395788831Q259.51205370765945 467.27860848336894 207.4452242905096 428.9589563625267Q155.37839487335978 390.63930424168444 134.37839487335978 324.68599328654255V0H76.81965212084224V520.6570033567288H131.06438815990236V393.8373512358865Q158.06438815990236 448.2850167836436 203.01205370765945 482.6803478791578Q247.95971925541653 517.075678974672 297.85505035093075 521.9710100701861Q307.85505035093075 522.4186756179432 315.5265486725664 522.6425083918218Q323.198046994202 522.8663411657003 328.6457125419591 522.3140067134574Z"/>
    <path transform="translate(146.039 487.000) scale(0.117900 -0.117900)" d="M243.28501678364358 -10Q180.97101007018614 -10 127.1046689044858 11.052334452242906Q73.23832773878547 32.10466890448581 33.133658834299666 75.1046689044858L58.62801342691486 115.16905706438816Q101.38968568812939 74.51205370765945 145.94202014037228 56.06438815990235Q190.4943545926152 37.61672261214525 241.07567897467194 37.61672261214525Q305.3719865730851 37.61672261214525 345.63930424168444 63.93637473298749Q385.9066219102838 90.25602685382972 385.9066219102838 138.76167226121453Q385.9066219102838 171.7906621910284 366.8397924931339 189.1481537992066Q347.77296307598414 206.5056454073848 311.9678059200488 217.7963075984132Q276.1626487641135 229.08696978944155 225.8953310955142 241.53463533719867Q172.34299664327128 256.19163869392736 136.01449496490693 271.72947818126335Q99.68599328654257 287.26731766859933 81.35749160817821 312.02898992981386Q63.028989929813854 336.7906621910284 63.028989929813854 377.7906621910284Q63.028989929813854 428.68599328654255 88.8051571559353 462.06682941714985Q114.58132438205676 495.4476655477571 158.2906621910284 512.3285016783643Q202 529.2093378089717 255.97101007018614 529.2093378089717Q316.2093378089716 529.2093378089717 362.0901739395789 509.6425083918218Q407.97101007018614 490.075678974672 434.36069575831556 456.4186756179432L404.2093378089716 419.14494964906925Q378.5813243820568 450.69728410131216 338.89533109551417 466.4211168751907Q299.2093378089716 482.14494964906925 251.41867561794325 482.14494964906925Q217.25602685382972 482.14494964906925 186.77937137625878 472.73512358864815Q156.30271589868784 463.32529752822705 137.06438815990236 442.12480927677757Q117.82606042111688 420.924321025328 117.82606042111688 384.6570033567287Q117.82606042111688 355.6280134269149 131.99755874275252 339.11351846200796Q146.16905706438817 322.59902349710103 174.68355202929507 312.15135794934395Q203.198046994202 301.7036924015868 245.67470247177297 289.7036924015868Q306.01769911504425 274.0466890448581 350.18919743667993 257.9420201403723Q394.36069575831556 241.83735123588647 418.36069575831556 215.9565151052792Q442.36069575831556 190.07567897467194 442.36069575831556 143.41867561794325Q442.36069575831556 72.1046689044858 387.70369240158686 31.052334452242903Q333.0466890448581 -10 243.28501678364358 -10Z"/>
    <path transform="translate(196.528 487.000) scale(0.117900 -0.117900)" d="M316.37839487335975 25.10466890448581Q310.30271589868784 22.342996643271285 294.212541959109 14.566829417149833Q278.1223680195301 6.79066219102838 254.91303021055845 0.342996643271285Q231.7036924015868 -6.10466890448581 203.7036924015868 -6.10466890448581Q175.28501678364358 -6.10466890448581 151.19484284406468 4.723832773878547Q127.1046689044858 15.552334452242905 112.67149832163564 37.14250839182179Q98.23832773878547 58.732682331400675 98.23832773878547 89.91303021055843V473.5926151968264H25.447665547757094V520.6570033567288H98.23832773878547V697.7906621910283H155.79707049130303V520.6570033567288H276.37839487335975V473.5926151968264H155.79707049130303V104.82606042111688Q157.79707049130303 76.37839487335978 176.58773268233142 61.98306377784559Q195.37839487335978 47.5877326823314 219.72139151663106 47.5877326823314Q249.75038144644492 47.5877326823314 272.64571254195914 57.930729325602684Q295.5410436374733 68.27372596887398 299.85505035093075 70.93072932560268Z"/>
    <path transform="translate(259.160 487.000) scale(0.117900 -0.117900)" d="M378.4476655477571 -5Q293.89533109551417 -5 236.56682941714982 24.947665547757094Q179.23832773878547 54.89533109551419 145.13365883429967 106.06682941714983Q111.02898992981386 157.23832773878547 95.92432102532806 221.23832773878547Q80.81965212084224 285.2383277387855 80.81965212084224 352.7906621910284V710H139.4830637778456V352.7906621910284Q139.4830637778456 295.4186756179432 151.10222764723832 240.77052181873665Q162.72139151663106 186.12236801953006 189.63121757705218 142.86954531583766Q216.5410436374733 99.61672261214525 262.46536466280133 74.15456209948124Q308.38968568812936 48.69240158681721 377.4476655477571 48.69240158681721Q447.5056454073848 48.69240158681721 493.87763198046997 74.87839487335978Q540.2496185535551 101.06438815990235 566.9356118400976 144.81721086359477Q593.6216051266402 188.57003356728717 605.0169362221544 242.71818736649377Q616.4122673176686 296.86634116570036 616.4122673176686 352.7906621910284V710H675.075678974672V352.7906621910284Q675.075678974672 281.68599328654255 659.2471772963077 216.962160512664Q643.4186756179432 152.23832773878547 608.537839487336 102.56682941714983Q573.6570033567288 52.89533109551419 517.0523344522429 23.947665547757094Q460.4476655477571 -5 378.4476655477571 -5Z"/>
    <path transform="translate(342.071 487.000) scale(0.117900 -0.117900)" d="M507.4363747329875 0H449.8776319804699V290.6570033567287Q449.8776319804699 387.0869697894416 421.69163869392736 431.8542874580409Q393.5056454073848 476.62160512664025 333.4476655477571 476.62160512664025Q291.18034787915775 476.62160512664025 250.3083613060726 456.15944461397623Q209.43637473298747 435.69728410131216 178.57888312480927 400.7206286237412Q147.72139151663106 365.7439731461703 134.37839487335978 320.81965212084225V0H76.81965212084224V520.6570033567288H129.95971925541653V398.80836130607264Q151.40738480317364 438.0466890448581 185.75038144644492 467.2850167836436Q220.0933780897162 496.52334452242906 263.21254195910893 512.8663411657003Q306.3317058285017 529.2093378089717 352.3317058285017 529.2093378089717Q395.0933780897162 529.2093378089717 424.92187976808054 513.6046689044858Q454.7503814464449 498 472.92187976808054 468.72383277387854Q491.0933780897162 439.4476655477571 499.26487641135185 397.2093378089716Q507.4363747329875 354.97101007018614 507.4363747329875 301.7036924015868Z"/>
    <path transform="translate(404.232 487.000) scale(0.117900 -0.117900)" d="M76.81965212084224 0V520.6570033567288H134.37839487335978V0ZM76.81965212084224 634.7729630759841V730H134.37839487335978V634.7729630759841Z"/>
    <path transform="translate(423.005 487.000) scale(0.117900 -0.117900)" d="M316.37839487335975 25.10466890448581Q310.30271589868784 22.342996643271285 294.212541959109 14.566829417149833Q278.1223680195301 6.79066219102838 254.91303021055845 0.342996643271285Q231.7036924015868 -6.10466890448581 203.7036924015868 -6.10466890448581Q175.28501678364358 -6.10466890448581 151.19484284406468 4.723832773878547Q127.1046689044858 15.552334452242905 112.67149832163564 37.14250839182179Q98.23832773878547 58.732682331400675 98.23832773878547 89.91303021055843V473.5926151968264H25.447665547757094V520.6570033567288H98.23832773878547V697.7906621910283H155.79707049130303V520.6570033567288H276.37839487335975V473.5926151968264H155.79707049130303V104.82606042111688Q157.79707049130303 76.37839487335978 176.58773268233142 61.98306377784559Q195.37839487335978 47.5877326823314 219.72139151663106 47.5877326823314Q249.75038144644492 47.5877326823314 272.64571254195914 57.930729325602684Q295.5410436374733 68.27372596887398 299.85505035093075 70.93072932560268Z"/>
    <path transform="translate(455.337 487.000) scale(0.117900 -0.117900)" d="M299.31400671345745 -10Q243.8953310955142 -10 196.73832773878547 11.5Q149.58132438205675 33 114.52898992981385 70.5Q79.47665547757094 108 59.976655477570944 157.22383277387854Q40.47665547757095 206.44766554775708 40.47665547757095 261.89533109551417Q40.47665547757095 335.4476655477571 74.02898992981386 396.0Q107.58132438205676 456.5523344522429 165.84299664327128 492.8808361306073Q224.1046689044858 529.2093378089717 297.6280134269149 529.2093378089717Q372.1513579493439 529.2093378089717 429.7560268538297 492.3808361306073Q487.36069575831556 455.5523344522429 520.5321940799512 395.0523344522429Q553.7036924015869 334.5523344522429 553.7036924015869 262.31400671345745Q553.7036924015869 255.44766554775708 553.4275251754655 249.08132438205675Q553.151357949344 242.71498321635642 552.599023497101 238.6103143118706H100.79707049130303Q105.24473603906011 180.44766554775708 133.10222764723832 134.4565151052792Q160.95971925541653 88.46536466280135 205.33170582850167 61.93637473298749Q249.7036924015868 35.407384803173635 301.4186756179432 35.407384803173635Q354.7906621910284 35.407384803173635 401.5434848947208 62.31721086359475Q448.2963075984132 89.22703692401586 466.98230088495575 132.25602685382972L517.4653646628013 118.41867561794324Q501.80836130607264 81.76167226121453 469.20369240158686 52.43317058285017Q436.59902349710103 23.10466890448581 392.6658529142509 6.552334452242905Q348.73268233140067 -10 299.31400671345745 -10ZM99.14006713457431 281.2560268538297H499.0112908147696Q495.0112908147696 340.7616722612145 467.325297528227 386.2528227036924Q439.63930424168444 431.7439731461703 395.7149832163564 457.77296307598414Q351.7906621910284 483.801953005798 298.075678974672 483.801953005798Q245.36069575831553 483.801953005798 201.43637473298747 457.77296307598414Q157.51205370765945 431.7439731461703 130.3260604211169 386.02898992981386Q103.14006713457431 340.31400671345745 99.14006713457431 281.2560268538297Z"/>
    <path transform="translate(518.087 487.000) scale(0.117900 -0.117900)" d="M41.028989929813854 259.10466890448583Q41.028989929813854 332.2093378089716 71.97665547757094 393.48550503509307Q102.92432102532804 454.7616722612145 156.87198657308514 491.98550503509307Q210.81965212084222 529.2093378089717 279.81965212084225 529.2093378089717Q346.40097650289897 529.2093378089717 398.63930424168444 493.74717729630765Q450.8776319804699 458.2850167836436 480.2206286237412 409.0466890448581V730H537.7793713762587V73.14006713457431Q537.7793713762587 60.273725968873975 543.3840402807446 53.66905706438816Q548.9887091852304 47.06438815990235 560.4073848031736 46.51205370765945V0Q542.5700335672872 -2.2093378089716205 533.0466890448581 -1.314006713457431Q513.7616722612145 0.9243210253280436 500.30515715593526 15.566829417149833Q486.8486420506561 30.209337808971622 486.8486420506561 47.732682331400675V102.47665547757094Q454.9533109551419 51.581324382056756 401.38648153799204 20.790662191028378Q347.81965212084225 -10 290.47665547757094 -10Q236.47665547757094 -10 190.7528227036924 12.171498321635642Q145.02898992981386 34.342996643271285 111.52898992981386 72.56682941714983Q78.02898992981386 110.79066219102837 59.52898992981386 158.84299664327128Q41.028989929813854 206.8953310955142 41.028989929813854 259.10466890448583ZM480.2206286237412 176.73268233140067V343.2963075984132Q466.8776319804699 380.8776319804699 436.7439731461703 411.287458040891Q406.61031431187064 441.69728410131216 368.6336588342997 459.98794629234055Q330.6570033567287 478.27860848336894 293.6280134269149 478.27860848336894Q249.25602685382972 478.27860848336894 213.72703692401586 459.764113518462Q178.198046994202 441.2496185535551 152.7882209337809 409.94446139761976Q127.37839487335978 378.63930424168444 113.81156545620995 339.61031431187064Q100.24473603906011 300.5813243820568 100.24473603906011 258.5523344522429Q100.24473603906011 215.07567897467194 115.53539823008849 175.82285627097957Q130.82606042111686 136.57003356728717 158.68355202929507 105.9887091852304Q186.5410436374733 75.40738480317364 223.07003356728717 58.16905706438816Q259.59902349710103 40.930729325602684 302.075678974672 40.930729325602684Q328.7616722612145 40.930729325602684 358.2906621910284 51.49755874275252Q387.81965212084225 62.06438815990235 414.40097650289897 80.97421422032346Q440.98230088495575 99.88404028074459 458.77296307598414 124.51769911504425Q476.5636252670125 149.15135794934392 480.2206286237412 176.73268233140067Z"/>
    <path transform="translate(615.146 487.000) scale(0.117900 -0.117900)" d="M728.5459261519683 0V597.5105279218798L458.2850167836436 131.71498321635642H420.7439731461703L149.9307293256027 597.5105279218798V0H91.26731766859933V710H150.90173939578884L439.2383277387855 210.94842844064692L728.127250534025 710H787.2093378089717V0Z"/>
    <path transform="translate(712.559 487.000) scale(0.117900 -0.117900)" d="M299.31400671345745 -10Q243.8953310955142 -10 196.73832773878547 11.5Q149.58132438205675 33 114.52898992981385 70.5Q79.47665547757094 108 59.976655477570944 157.22383277387854Q40.47665547757095 206.44766554775708 40.47665547757095 261.89533109551417Q40.47665547757095 335.4476655477571 74.02898992981386 396.0Q107.58132438205676 456.5523344522429 165.84299664327128 492.8808361306073Q224.1046689044858 529.2093378089717 297.6280134269149 529.2093378089717Q372.1513579493439 529.2093378089717 429.7560268538297 492.3808361306073Q487.36069575831556 455.5523344522429 520.5321940799512 395.0523344522429Q553.7036924015869 334.5523344522429 553.7036924015869 262.31400671345745Q553.7036924015869 255.44766554775708 553.4275251754655 249.08132438205675Q553.151357949344 242.71498321635642 552.599023497101 238.6103143118706H100.79707049130303Q105.24473603906011 180.44766554775708 133.10222764723832 134.4565151052792Q160.95971925541653 88.46536466280135 205.33170582850167 61.93637473298749Q249.7036924015868 35.407384803173635 301.4186756179432 35.407384803173635Q354.7906621910284 35.407384803173635 401.5434848947208 62.31721086359475Q448.2963075984132 89.22703692401586 466.98230088495575 132.25602685382972L517.4653646628013 118.41867561794324Q501.80836130607264 81.76167226121453 469.20369240158686 52.43317058285017Q436.59902349710103 23.10466890448581 392.6658529142509 6.552334452242905Q348.73268233140067 -10 299.31400671345745 -10ZM99.14006713457431 281.2560268538297H499.0112908147696Q495.0112908147696 340.7616722612145 467.325297528227 386.2528227036924Q439.63930424168444 431.7439731461703 395.7149832163564 457.77296307598414Q351.7906621910284 483.801953005798 298.075678974672 483.801953005798Q245.36069575831553 483.801953005798 201.43637473298747 457.77296307598414Q157.51205370765945 431.7439731461703 130.3260604211169 386.02898992981386Q103.14006713457431 340.31400671345745 99.14006713457431 281.2560268538297Z"/>
    <path transform="translate(775.309 487.000) scale(0.117900 -0.117900)" d="M316.37839487335975 25.10466890448581Q310.30271589868784 22.342996643271285 294.212541959109 14.566829417149833Q278.1223680195301 6.79066219102838 254.91303021055845 0.342996643271285Q231.7036924015868 -6.10466890448581 203.7036924015868 -6.10466890448581Q175.28501678364358 -6.10466890448581 151.19484284406468 4.723832773878547Q127.1046689044858 15.552334452242905 112.67149832163564 37.14250839182179Q98.23832773878547 58.732682331400675 98.23832773878547 89.91303021055843V473.5926151968264H25.447665547757094V520.6570033567288H98.23832773878547V697.7906621910283H155.79707049130303V520.6570033567288H276.37839487335975V473.5926151968264H155.79707049130303V104.82606042111688Q157.79707049130303 76.37839487335978 176.58773268233142 61.98306377784559Q195.37839487335978 47.5877326823314 219.72139151663106 47.5877326823314Q249.75038144644492 47.5877326823314 272.64571254195914 57.930729325602684Q295.5410436374733 68.27372596887398 299.85505035093075 70.93072932560268Z"/>
    <path transform="translate(807.641 487.000) scale(0.117900 -0.117900)" d="M507.4363747329875 0H449.8776319804699V290.6570033567287Q449.8776319804699 383.19163869392736 417.79630759841314 429.9066219102838Q385.7149832163564 476.62160512664025 324.6570033567287 476.62160512664025Q284.38968568812936 476.62160512664025 244.96536466280133 456.15944461397623Q205.5410436374733 435.69728410131216 176.40738480317364 400.7206286237412Q147.27372596887398 365.7439731461703 134.37839487335978 320.81965212084225V0H76.81965212084224V730H134.37839487335978V398.80836130607264Q165.82606042111686 458.8373512358865 222.01205370765945 494.02334452242906Q278.198046994202 529.2093378089717 342.4363747329875 529.2093378089717Q386.7503814464449 529.2093378089717 417.80271589868784 513.3808361306073Q448.85505035093075 497.5523344522429 468.7503814464449 467.3285016783644Q488.6457125419591 437.10466890448583 498.0410436374733 395.5901739395789Q507.4363747329875 354.075678974672 507.4363747329875 301.7036924015868Z"/>
    <path transform="translate(869.802 487.000) scale(0.117900 -0.117900)" d="M296.31400671345745 -10Q240.8953310955142 -10 194.23832773878547 11.276167226121451Q147.58132438205675 32.5523344522429 113.02898992981385 70.0523344522429Q78.47665547757094 107.5523344522429 59.476655477570944 156.22915439239986Q40.47665547757095 204.90597433255684 40.47665547757095 259.1028460185048Q40.47665547757095 314.3033634764148 59.7004882514495 362.9801834165718Q78.92432102532804 411.6570033567287 113.47665547757094 449.1570033567287Q148.02898992981386 486.6570033567287 194.962160512664 507.93317058285015Q241.8953310955142 529.2093378089717 296.5901739395789 529.2093378089717Q351.2850167836436 529.2093378089717 397.9420201403723 507.93317058285015Q444.59902349710103 486.6570033567287 479.4275251754654 449.1570033567287Q514.2560268538298 411.6570033567287 533.4798596277083 362.9801834165718Q552.7036924015869 314.3033634764148 552.7036924015869 259.1028460185048Q552.7036924015869 204.90597433255684 533.7036924015869 156.22915439239986Q514.7036924015869 107.5523344522429 479.92752517546535 70.0523344522429Q445.1513579493439 32.5523344522429 398.4420201403723 11.276167226121451Q351.73268233140067 -10 296.31400671345745 -10ZM99.14006713457431 257.71019111879656Q99.14006713457431 197.83735123588647 125.77372596887398 148.46536466280133Q152.40738480317364 99.0933780897162 197.00320415013732 70.01205370765945Q241.599023497101 40.930729325602684 295.86634116570036 40.930729325602684Q350.13365883429964 40.930729325602684 395.22947818126335 70.51205370765945Q440.32529752822705 100.0933780897162 467.1827891364053 150.18919743667988Q494.04028074458347 200.28501678364358 494.04028074458347 260.10466890448583Q494.04028074458347 319.924321025328 467.1827891364053 369.52014037229173Q440.32529752822705 419.11595971925544 395.3763188799808 448.6972841013122Q350.4273402317345 478.27860848336894 296.31400671345745 478.27860848336894Q242.4943545926152 478.27860848336894 197.58819225636142 448.1520107855546Q152.68202992010765 418.02541308774016 125.91104852734098 368.25103428265555Q99.14006713457431 318.47665547757094 99.14006713457431 257.71019111879656Z"/>
    <path transform="translate(933.613 487.000) scale(0.117900 -0.117900)" d="M41.028989929813854 259.10466890448583Q41.028989929813854 332.2093378089716 71.97665547757094 393.48550503509307Q102.92432102532804 454.7616722612145 156.87198657308514 491.98550503509307Q210.81965212084222 529.2093378089717 279.81965212084225 529.2093378089717Q346.40097650289897 529.2093378089717 398.63930424168444 493.74717729630765Q450.8776319804699 458.2850167836436 480.2206286237412 409.0466890448581V730H537.7793713762587V73.14006713457431Q537.7793713762587 60.273725968873975 543.3840402807446 53.66905706438816Q548.9887091852304 47.06438815990235 560.4073848031736 46.51205370765945V0Q542.5700335672872 -2.2093378089716205 533.0466890448581 -1.314006713457431Q513.7616722612145 0.9243210253280436 500.30515715593526 15.566829417149833Q486.8486420506561 30.209337808971622 486.8486420506561 47.732682331400675V102.47665547757094Q454.9533109551419 51.581324382056756 401.38648153799204 20.790662191028378Q347.81965212084225 -10 290.47665547757094 -10Q236.47665547757094 -10 190.7528227036924 12.171498321635642Q145.02898992981386 34.342996643271285 111.52898992981386 72.56682941714983Q78.02898992981386 110.79066219102837 59.52898992981386 158.84299664327128Q41.028989929813854 206.8953310955142 41.028989929813854 259.10466890448583ZM480.2206286237412 176.73268233140067V343.2963075984132Q466.8776319804699 380.8776319804699 436.7439731461703 411.287458040891Q406.61031431187064 441.69728410131216 368.6336588342997 459.98794629234055Q330.6570033567287 478.27860848336894 293.6280134269149 478.27860848336894Q249.25602685382972 478.27860848336894 213.72703692401586 459.764113518462Q178.198046994202 441.2496185535551 152.7882209337809 409.94446139761976Q127.37839487335978 378.63930424168444 113.81156545620995 339.61031431187064Q100.24473603906011 300.5813243820568 100.24473603906011 258.5523344522429Q100.24473603906011 215.07567897467194 115.53539823008849 175.82285627097957Q130.82606042111686 136.57003356728717 158.68355202929507 105.9887091852304Q186.5410436374733 75.40738480317364 223.07003356728717 58.16905706438816Q259.59902349710103 40.930729325602684 302.075678974672 40.930729325602684Q328.7616722612145 40.930729325602684 358.2906621910284 51.49755874275252Q387.81965212084225 62.06438815990235 414.40097650289897 80.97421422032346Q440.98230088495575 99.88404028074459 458.77296307598414 124.51769911504425Q476.5636252670125 149.15135794934392 480.2206286237412 176.73268233140067Z"/>
    <path transform="translate(1000.372 487.000) scale(0.117900 -0.117900)" d="M76.81965212084224 0V520.6570033567288H134.37839487335978V0ZM76.81965212084224 634.7729630759841V730H134.37839487335978V634.7729630759841Z"/>
    <path transform="translate(1019.146 487.000) scale(0.117900 -0.117900)" d="M243.28501678364358 -10Q180.97101007018614 -10 127.1046689044858 11.052334452242906Q73.23832773878547 32.10466890448581 33.133658834299666 75.1046689044858L58.62801342691486 115.16905706438816Q101.38968568812939 74.51205370765945 145.94202014037228 56.06438815990235Q190.4943545926152 37.61672261214525 241.07567897467194 37.61672261214525Q305.3719865730851 37.61672261214525 345.63930424168444 63.93637473298749Q385.9066219102838 90.25602685382972 385.9066219102838 138.76167226121453Q385.9066219102838 171.7906621910284 366.8397924931339 189.1481537992066Q347.77296307598414 206.5056454073848 311.9678059200488 217.7963075984132Q276.1626487641135 229.08696978944155 225.8953310955142 241.53463533719867Q172.34299664327128 256.19163869392736 136.01449496490693 271.72947818126335Q99.68599328654257 287.26731766859933 81.35749160817821 312.02898992981386Q63.028989929813854 336.7906621910284 63.028989929813854 377.7906621910284Q63.028989929813854 428.68599328654255 88.8051571559353 462.06682941714985Q114.58132438205676 495.4476655477571 158.2906621910284 512.3285016783643Q202 529.2093378089717 255.97101007018614 529.2093378089717Q316.2093378089716 529.2093378089717 362.0901739395789 509.6425083918218Q407.97101007018614 490.075678974672 434.36069575831556 456.4186756179432L404.2093378089716 419.14494964906925Q378.5813243820568 450.69728410131216 338.89533109551417 466.4211168751907Q299.2093378089716 482.14494964906925 251.41867561794325 482.14494964906925Q217.25602685382972 482.14494964906925 186.77937137625878 472.73512358864815Q156.30271589868784 463.32529752822705 137.06438815990236 442.12480927677757Q117.82606042111688 420.924321025328 117.82606042111688 384.6570033567287Q117.82606042111688 355.6280134269149 131.99755874275252 339.11351846200796Q146.16905706438817 322.59902349710103 174.68355202929507 312.15135794934395Q203.198046994202 301.7036924015868 245.67470247177297 289.7036924015868Q306.01769911504425 274.0466890448581 350.18919743667993 257.9420201403723Q394.36069575831556 241.83735123588647 418.36069575831556 215.9565151052792Q442.36069575831556 190.07567897467194 442.36069575831556 143.41867561794325Q442.36069575831556 72.1046689044858 387.70369240158686 31.052334452242903Q333.0466890448581 -10 243.28501678364358 -10Z"/>
    <path transform="translate(1069.634 487.000) scale(0.117900 -0.117900)" d="M316.37839487335975 25.10466890448581Q310.30271589868784 22.342996643271285 294.212541959109 14.566829417149833Q278.1223680195301 6.79066219102838 254.91303021055845 0.342996643271285Q231.7036924015868 -6.10466890448581 203.7036924015868 -6.10466890448581Q175.28501678364358 -6.10466890448581 151.19484284406468 4.723832773878547Q127.1046689044858 15.552334452242905 112.67149832163564 37.14250839182179Q98.23832773878547 58.732682331400675 98.23832773878547 89.91303021055843V473.5926151968264H25.447665547757094V520.6570033567288H98.23832773878547V697.7906621910283H155.79707049130303V520.6570033567288H276.37839487335975V473.5926151968264H155.79707049130303V104.82606042111688Q157.79707049130303 76.37839487335978 176.58773268233142 61.98306377784559Q195.37839487335978 47.5877326823314 219.72139151663106 47.5877326823314Q249.75038144644492 47.5877326823314 272.64571254195914 57.930729325602684Q295.5410436374733 68.27372596887398 299.85505035093075 70.93072932560268Z"/>
    <path transform="translate(1132.266 487.000) scale(0.117900 -0.117900)" d="M43.028989929813854 360Q43.028989929813854 424.5523344522429 65.52898992981386 487.0523344522429Q88.02898992981386 549.5523344522429 131.30515715593532 601.0523344522429Q174.58132438205675 652.5523344522429 237.13365883429964 683.2761672261215Q299.68599328654255 714 379.68599328654255 714Q474.68599328654255 714 541.7906621910283 670.5Q608.8953310955142 627 641.4476655477571 559L593.7262740311261 530.9066219102838Q570.0402807445835 579.0402807445835 534.1827891364053 607.5547757094904Q498.32529752822705 636.0692706743973 457.2439731461703 648.18843454379Q416.1626487641135 660.3075984131827 375.68599328654255 660.3075984131827Q309.97101007018614 660.3075984131827 258.87519072322243 634.0692706743973Q207.77937137625878 607.8309429356118 172.75038144644492 563.8019530057979Q137.72139151663106 519.7729630759841 119.98306377784559 465.79630759841314Q102.24473603906011 411.81965212084225 102.24473603906011 356.4476655477571Q102.24473603906011 295.6280134269149 123.20689655172414 239.92752517546538Q144.16905706438817 184.22703692401586 181.6457125419591 141.198046994202Q219.12236801953006 98.16905706438816 269.4943545926152 72.93072932560268Q319.86634116570036 47.69240158681721 378.68599328654255 47.69240158681721Q420.1626487641135 47.69240158681721 463.6393042416845 62.0353982300885Q507.11595971925544 76.37839487335978 545.1449496490693 106.34055538602381Q583.1739395788832 136.30271589868784 606.3075984131827 183.88404028074459L656.2383277387855 159Q633.3429966432712 106 587.3429966432712 69.0Q541.3429966432712 32 485.29066219102833 13.0Q429.2383277387855 -6 374.68599328654255 -6Q302.13365883429964 -6 241.35749160817818 25.5Q180.58132438205675 57 136.08132438205675 109.5Q91.58132438205676 162 67.3051571559353 227.5Q43.028989929813854 293 43.028989929813854 360Z"/>
    <path transform="translate(1207.396 487.000) scale(0.117900 -0.117900)" d="M507.4363747329875 0H449.8776319804699V290.6570033567287Q449.8776319804699 383.19163869392736 417.79630759841314 429.9066219102838Q385.7149832163564 476.62160512664025 324.6570033567287 476.62160512664025Q284.38968568812936 476.62160512664025 244.96536466280133 456.15944461397623Q205.5410436374733 435.69728410131216 176.40738480317364 400.7206286237412Q147.27372596887398 365.7439731461703 134.37839487335978 320.81965212084225V0H76.81965212084224V730H134.37839487335978V398.80836130607264Q165.82606042111686 458.8373512358865 222.01205370765945 494.02334452242906Q278.198046994202 529.2093378089717 342.4363747329875 529.2093378089717Q386.7503814464449 529.2093378089717 417.80271589868784 513.3808361306073Q448.85505035093075 497.5523344522429 468.7503814464449 467.3285016783644Q488.6457125419591 437.10466890448583 498.0410436374733 395.5901739395789Q507.4363747329875 354.075678974672 507.4363747329875 301.7036924015868Z"/>
    <path transform="translate(1269.557 487.000) scale(0.117900 -0.117900)" d="M71.37198657308514 217.5056454073848V520.6570033567288H128.9307293256027V226.8953310955142Q128.9307293256027 133.46536466280133 160.735886481538 87.198046994202Q192.5410436374733 40.930729325602684 256.0466890448581 40.930729325602684Q298.31400671345745 40.930729325602684 337.4098260604211 59.7882209337809Q376.5056454073848 78.64571254195911 406.863137015563 112.7938663411657Q437.2206286237412 146.94202014037228 452.2206286237412 192.31400671345745V520.6570033567288H509.7793713762588V73.14006713457431Q509.7793713762588 60.273725968873975 515.3840402807446 53.66905706438816Q520.9887091852304 47.06438815990235 532.4073848031736 46.51205370765945V0Q521.4363747329875 -1.1046689044858102 515.3985352456515 -1.1570033567287155Q509.36069575831556 -1.2093378089716205 504.0466890448581 -0.7616722612145255Q485.7616722612145 1.0289899298138536 473.1336588342997 14.29066219102838Q460.5056454073848 27.552334452242906 459.9533109551419 46.07567897467196L458.8486420506561 120.9533109551419Q424.8486420506561 59.819652120842235 365.78181263350626 24.909826060421118Q306.7149832163564 -10 237.81965212084222 -10Q155.81965212084222 -10 113.59581934696368 47.51449496490693Q71.37198657308514 105.02898992981386 71.37198657308514 217.5056454073848Z"/>
    <path transform="translate(1333.014 487.000) scale(0.117900 -0.117900)" d="M328.6457125419591 469.1739395788831Q259.51205370765945 467.27860848336894 207.4452242905096 428.9589563625267Q155.37839487335978 390.63930424168444 134.37839487335978 324.68599328654255V0H76.81965212084224V520.6570033567288H131.06438815990236V393.8373512358865Q158.06438815990236 448.2850167836436 203.01205370765945 482.6803478791578Q247.95971925541653 517.075678974672 297.85505035093075 521.9710100701861Q307.85505035093075 522.4186756179432 315.5265486725664 522.6425083918218Q323.198046994202 522.8663411657003 328.6457125419591 522.3140067134574Z"/>
    <path transform="translate(1367.587 487.000) scale(0.117900 -0.117900)" d="M299.7616722612145 -10Q244.34299664327128 -10 197.18599328654255 11.5Q150.02898992981386 33 114.7528227036924 70.77616722612146Q79.47665547757094 108.5523344522429 59.976655477570944 157.55233445224292Q40.47665547757095 206.55233445224292 40.47665547757095 262Q40.47665547757095 336.4476655477571 73.47665547757094 397.0Q106.47665547757094 457.5523344522429 165.13365883429967 493.3808361306073Q223.7906621910284 529.2093378089717 298.7616722612145 529.2093378089717Q370.38968568812936 529.2093378089717 425.42752517546535 496.5Q480.46536466280133 463.7906621910284 507.57003356728717 407.13365883429964L451.11595971925544 389.0869697894416Q428.8776319804699 431.0112908147696 387.5056454073848 454.6449496490693Q346.13365883429964 478.27860848336894 296.31400671345745 478.27860848336894Q241.599023497101 478.27860848336894 196.72703692401586 449.9211168751907Q151.85505035093072 421.5636252670125 125.49755874275252 372.6916386939274Q99.14006713457431 323.81965212084225 99.14006713457431 262Q99.14006713457431 201.18034787915778 125.99755874275252 150.86069575831556Q152.85505035093072 100.54104363747331 197.9508696978944 70.73588648153799Q243.0466890448581 40.930729325602684 297.31400671345745 40.930729325602684Q332.7906621910284 40.930729325602684 365.9911504424779 53.945224290509614Q399.19163869392736 66.95971925541654 423.825297528227 88.36954531583766Q448.4589563625267 109.77937137625878 456.4589563625267 134.46536466280133L512.9130302105584 117.41867561794324Q499.1513579493439 80.76167226121453 467.3228562709795 51.93317058285017Q435.4943545926152 23.10466890448581 392.33735123588644 6.552334452242905Q349.18034787915775 -10 299.7616722612145 -10Z"/>
    <path transform="translate(1425.974 487.000) scale(0.117900 -0.117900)" d="M507.4363747329875 0H449.8776319804699V290.6570033567287Q449.8776319804699 383.19163869392736 417.79630759841314 429.9066219102838Q385.7149832163564 476.62160512664025 324.6570033567287 476.62160512664025Q284.38968568812936 476.62160512664025 244.96536466280133 456.15944461397623Q205.5410436374733 435.69728410131216 176.40738480317364 400.7206286237412Q147.27372596887398 365.7439731461703 134.37839487335978 320.81965212084225V0H76.81965212084224V730H134.37839487335978V398.80836130607264Q165.82606042111686 458.8373512358865 222.01205370765945 494.02334452242906Q278.198046994202 529.2093378089717 342.4363747329875 529.2093378089717Q386.7503814464449 529.2093378089717 417.80271589868784 513.3808361306073Q448.85505035093075 497.5523344522429 468.7503814464449 467.3285016783644Q488.6457125419591 437.10466890448583 498.0410436374733 395.5901739395789Q507.4363747329875 354.075678974672 507.4363747329875 301.7036924015868Z"/>
    <path transform="translate(1518.435 487.000) scale(0.117900 -0.117900)" d="M226 -10Q158 -10 113.0 19.5Q68 49 46.0 99.0Q24 149 24 209Q24 275 48.5 333.0Q73 391 115.0 435.5Q157 480 212.5 505.0Q268 530 329 530Q396 530 441.5 500.0Q487 470 509.0 420.5Q531 371 531 310Q531 244 507.0 186.0Q483 128 440.5 84.0Q398 40 343.0 15.0Q288 -10 226 -10ZM238 50Q280 50 320.0 68.5Q360 87 391.5 121.0Q423 155 442.0 200.5Q461 246 461 300Q461 348 444.5 386.5Q428 425 396.5 447.5Q365 470 317 470Q275 470 235.0 451.0Q195 432 163.5 397.5Q132 363 113.0 317.5Q94 272 94 218Q94 170 110.5 131.5Q127 93 159.0 71.5Q191 50 238 50Z"/>
    <path transform="translate(1579.889 487.000) scale(0.117900 -0.117900)" d="M130 467H62L73 521H142L144 535Q157 599 184.5 645.0Q212 691 251.0 715.5Q290 740 335 740Q364 740 389.5 731.0Q415 722 433 707L402 658Q392 669 373.5 675.0Q355 681 336 681Q292 681 260.0 644.0Q228 607 213 537L210 521H345L334 467H198L54 -212H-14Z"/>
    <path transform="translate(1642.049 487.000) scale(0.117900 -0.117900)" d="M505.13365883429964 585.6216051266402Q489.10466890448583 603.6505950564541 468.43317058285015 617.7697589258469Q447.7616722612145 631.8889227952395 423.43317058285015 641.7174244736038Q399.10466890448583 651.5459261519683 370.9476655477571 656.9267622825755Q342.7906621910284 662.3075984131827 310.7906621910284 662.3075984131827Q211.33170582850167 662.3075984131827 165.3928898382667 624.3687824229478Q119.45407384803174 586.4299664327128 119.45407384803174 522.1336588342997Q119.45407384803174 478.31400671345745 140.79707049130303 452.9565151052792Q162.1400671345743 427.59902349710103 207.22139151663106 412.0321940799512Q252.30271589868784 396.46536466280133 323.01769911504425 381.01769911504425Q399.2560268538297 365.01769911504425 455.0466890448581 343.136862984437Q510.8373512358865 321.2560268538297 540.9565151052792 284.09902349710103Q571.075678974672 246.94202014037228 571.075678974672 183.3896856881294Q571.075678974672 135.97101007018614 552.6948428440646 100.26167226121453Q534.3140067134574 64.5523344522429 500.43317058285015 40.9476655477571Q466.5523344522429 17.342996643271285 419.77616722612146 5.619163869392738Q373 -6.10466890448581 316.6570033567287 -6.10466890448581Q261.31400671345745 -6.10466890448581 211.15700335672872 5.619163869392738Q161 17.342996643271285 116.79066219102839 40.46216051266402Q72.58132438205676 63.581324382056756 33.47665547757095 98.37198657308514L63.94202014037229 146.16905706438817Q84.86634116570033 124.24473603906011 111.93317058285017 106.17790662191028Q139 88.11107720476045 171.5 74.55874275251755Q204 61.00640830027464 241.1046689044858 53.62557216966738Q278.2093378089716 46.244736039060115 318.2093378089716 46.244736039060115Q407.63930424168444 46.244736039060115 458.3687824229478 79.3405553860238Q509.0982606042112 112.43637473298749 509.0982606042112 177.07567897467194Q509.0982606042112 222.8953310955142 484.9267622825755 250.70048825144949Q460.7552639609399 278.5056454073848 411.84543790051873 296.52014037229173Q362.93561184009764 314.53463533719867 289.77296307598414 330.53463533719867Q215.08696978944155 347.19163869392736 163.40097650289897 367.34864205065605Q111.71498321635642 387.5056454073848 85.42432102532804 421.8341470857491Q59.133658834299666 456.1626487641135 59.133658834299666 513.5056454073848Q59.133658834299666 578.8196521208422 91.01449496490693 623.8051571559353Q122.8953310955142 668.7906621910283 180.0 691.8953310955142Q237.1046689044858 715 311 715Q357.6570033567287 715 397.3663411657003 705.6714983216357Q437.075678974672 696.3429966432712 471.06118400976504 678.1191638693927Q505.0466890448581 659.8953310955142 534.151357949344 632.2093378089717Z"/>
    <path transform="translate(1707.393 487.000) scale(0.117900 -0.117900)" d="M299.31400671345745 -10Q243.8953310955142 -10 196.73832773878547 11.5Q149.58132438205675 33 114.52898992981385 70.5Q79.47665547757094 108 59.976655477570944 157.22383277387854Q40.47665547757095 206.44766554775708 40.47665547757095 261.89533109551417Q40.47665547757095 335.4476655477571 74.02898992981386 396.0Q107.58132438205676 456.5523344522429 165.84299664327128 492.8808361306073Q224.1046689044858 529.2093378089717 297.6280134269149 529.2093378089717Q372.1513579493439 529.2093378089717 429.7560268538297 492.3808361306073Q487.36069575831556 455.5523344522429 520.5321940799512 395.0523344522429Q553.7036924015869 334.5523344522429 553.7036924015869 262.31400671345745Q553.7036924015869 255.44766554775708 553.4275251754655 249.08132438205675Q553.151357949344 242.71498321635642 552.599023497101 238.6103143118706H100.79707049130303Q105.24473603906011 180.44766554775708 133.10222764723832 134.4565151052792Q160.95971925541653 88.46536466280135 205.33170582850167 61.93637473298749Q249.7036924015868 35.407384803173635 301.4186756179432 35.407384803173635Q354.7906621910284 35.407384803173635 401.5434848947208 62.31721086359475Q448.2963075984132 89.22703692401586 466.98230088495575 132.25602685382972L517.4653646628013 118.41867561794324Q501.80836130607264 81.76167226121453 469.20369240158686 52.43317058285017Q436.59902349710103 23.10466890448581 392.6658529142509 6.552334452242905Q348.73268233140067 -10 299.31400671345745 -10ZM99.14006713457431 281.2560268538297H499.0112908147696Q495.0112908147696 340.7616722612145 467.325297528227 386.2528227036924Q439.63930424168444 431.7439731461703 395.7149832163564 457.77296307598414Q351.7906621910284 483.801953005798 298.075678974672 483.801953005798Q245.36069575831553 483.801953005798 201.43637473298747 457.77296307598414Q157.51205370765945 431.7439731461703 130.3260604211169 386.02898992981386Q103.14006713457431 340.31400671345745 99.14006713457431 281.2560268538297Z"/>
    <path transform="translate(1770.144 487.000) scale(0.117900 -0.117900)" d="M34.028989929813854 150.1046689044858Q34.028989929813854 197.41867561794325 62.08132438205676 232.35184620079343Q90.13365883429967 267.2850167836436 139.23832773878547 286.83735123588644Q188.34299664327128 306.38968568812936 253 306.38968568812936Q292.02898992981386 306.38968568812936 334.38648153799204 299.9943545926152Q376.7439731461703 293.59902349710103 409.8776319804699 281.2560268538297V328.6570033567287Q409.8776319804699 398.0579798596277 369.17714372902043 439.27296307598414Q328.47665547757094 480.48794629234055 257.5523344522429 480.48794629234055Q217.23832773878547 480.48794629234055 175.94766554775708 464.54028074458347Q134.65700335672872 448.5926151968264 90.65700335672872 418.69728410131216L67.61031431187061 460.10466890448583Q118.16264876411351 494.6570033567287 166.47665547757094 511.93317058285015Q214.7906621910284 529.2093378089717 263.075678974672 529.2093378089717Q357.2560268538297 529.2093378089717 412.34620079340857 474.3808361306073Q467.4363747329875 419.5523344522429 467.4363747329875 323.68599328654255V73.14006713457431Q467.4363747329875 59.82606042111688 473.0410436374733 53.445224290509614Q478.6457125419591 47.06438815990235 490.06438815990236 46.51205370765945V0Q480.198046994202 -1.1046689044858102 473.60787305462316 -1.4331705828501677Q467.01769911504425 -1.7616722612145255 462.80836130607264 -1.314006713457431Q441.2093378089716 0.47665547757094906 429.962160512664 14.566829417149833Q418.7149832163564 28.657003356728715 417.61031431187064 44.971010070186146L416.5056454073848 84.68599328654257Q381.61031431187064 39.79066219102838 325.26731766859933 14.89533109551419Q268.924321025328 -10 208.65700335672872 -10Q158.8953310955142 -10 119.23832773878547 11.276167226121451Q79.58132438205676 32.5523344522429 56.805157155935305 69.0523344522429Q34.028989929813854 105.5523344522429 34.028989929813854 150.1046689044858ZM388.801953005798 108.62801342691486Q399.0112908147696 121.28501678364358 404.44446139761976 133.9943545926152Q409.8776319804699 146.7036924015868 409.8776319804699 156.25602685382972V238.26731766859933Q374.8486420506561 252.05797985962772 336.5958193469637 259.0056454073848Q298.3429966432713 265.9533109551419 259.075678974672 265.9533109551419Q183.12236801953006 265.9533109551419 136.25038144644492 235.64815379920657Q89.37839487335978 205.34299664327128 89.37839487335978 153.97101007018614Q89.37839487335978 122.70369240158682 105.56438815990235 95.62236801953006Q121.75038144644492 68.54104363747331 151.60787305462313 51.974214220323475Q181.46536466280133 35.407384803173635 221.36069575831553 35.407384803173635Q274 35.407384803173635 319.28181263350626 55.71254195910895Q364.5636252670125 76.01769911504425 388.801953005798 108.62801342691486Z"/>
    <path transform="translate(1827.824 487.000) scale(0.117900 -0.117900)" d="M316.37839487335975 25.10466890448581Q310.30271589868784 22.342996643271285 294.212541959109 14.566829417149833Q278.1223680195301 6.79066219102838 254.91303021055845 0.342996643271285Q231.7036924015868 -6.10466890448581 203.7036924015868 -6.10466890448581Q175.28501678364358 -6.10466890448581 151.19484284406468 4.723832773878547Q127.1046689044858 15.552334452242905 112.67149832163564 37.14250839182179Q98.23832773878547 58.732682331400675 98.23832773878547 89.91303021055843V473.5926151968264H25.447665547757094V520.6570033567288H98.23832773878547V697.7906621910283H155.79707049130303V520.6570033567288H276.37839487335975V473.5926151968264H155.79707049130303V104.82606042111688Q157.79707049130303 76.37839487335978 176.58773268233142 61.98306377784559Q195.37839487335978 47.5877326823314 219.72139151663106 47.5877326823314Q249.75038144644492 47.5877326823314 272.64571254195914 57.930729325602684Q295.5410436374733 68.27372596887398 299.85505035093075 70.93072932560268Z"/>
    <path transform="translate(1860.156 487.000) scale(0.117900 -0.117900)" d="M316.37839487335975 25.10466890448581Q310.30271589868784 22.342996643271285 294.212541959109 14.566829417149833Q278.1223680195301 6.79066219102838 254.91303021055845 0.342996643271285Q231.7036924015868 -6.10466890448581 203.7036924015868 -6.10466890448581Q175.28501678364358 -6.10466890448581 151.19484284406468 4.723832773878547Q127.1046689044858 15.552334452242905 112.67149832163564 37.14250839182179Q98.23832773878547 58.732682331400675 98.23832773878547 89.91303021055843V473.5926151968264H25.447665547757094V520.6570033567288H98.23832773878547V697.7906621910283H155.79707049130303V520.6570033567288H276.37839487335975V473.5926151968264H155.79707049130303V104.82606042111688Q157.79707049130303 76.37839487335978 176.58773268233142 61.98306377784559Q195.37839487335978 47.5877326823314 219.72139151663106 47.5877326823314Q249.75038144644492 47.5877326823314 272.64571254195914 57.930729325602684Q295.5410436374733 68.27372596887398 299.85505035093075 70.93072932560268Z"/>
    <path transform="translate(1892.488 487.000) scale(0.117900 -0.117900)" d="M80.61031431187061 730H138.16905706438817V109.0353982300885Q138.16905706438817 72.30271589868782 152.85505035093075 59.169057064388156Q167.5410436374733 46.0353982300885 190.36069575831553 46.0353982300885Q206.88404028074459 46.0353982300885 224.31721086359477 49.64006713457431Q241.75038144644492 53.244736039060115 254.75038144644492 57.797070491303025L265.6167226121453 10.866341165700335Q247.6457125419591 4.10466890448581 221.67470247177295 -1.0Q195.7036924015868 -6.10466890448581 176.73268233140067 -6.10466890448581Q132.8953310955142 -6.10466890448581 106.7528227036924 19.985505035093073Q80.61031431187061 46.07567897467196 80.61031431187061 91.36069575831553Z"/>
    <path transform="translate(1917.628 487.000) scale(0.117900 -0.117900)" d="M299.31400671345745 -10Q243.8953310955142 -10 196.73832773878547 11.5Q149.58132438205675 33 114.52898992981385 70.5Q79.47665547757094 108 59.976655477570944 157.22383277387854Q40.47665547757095 206.44766554775708 40.47665547757095 261.89533109551417Q40.47665547757095 335.4476655477571 74.02898992981386 396.0Q107.58132438205676 456.5523344522429 165.84299664327128 492.8808361306073Q224.1046689044858 529.2093378089717 297.6280134269149 529.2093378089717Q372.1513579493439 529.2093378089717 429.7560268538297 492.3808361306073Q487.36069575831556 455.5523344522429 520.5321940799512 395.0523344522429Q553.7036924015869 334.5523344522429 553.7036924015869 262.31400671345745Q553.7036924015869 255.44766554775708 553.4275251754655 249.08132438205675Q553.151357949344 242.71498321635642 552.599023497101 238.6103143118706H100.79707049130303Q105.24473603906011 180.44766554775708 133.10222764723832 134.4565151052792Q160.95971925541653 88.46536466280135 205.33170582850167 61.93637473298749Q249.7036924015868 35.407384803173635 301.4186756179432 35.407384803173635Q354.7906621910284 35.407384803173635 401.5434848947208 62.31721086359475Q448.2963075984132 89.22703692401586 466.98230088495575 132.25602685382972L517.4653646628013 118.41867561794324Q501.80836130607264 81.76167226121453 469.20369240158686 52.43317058285017Q436.59902349710103 23.10466890448581 392.6658529142509 6.552334452242905Q348.73268233140067 -10 299.31400671345745 -10ZM99.14006713457431 281.2560268538297H499.0112908147696Q495.0112908147696 340.7616722612145 467.325297528227 386.2528227036924Q439.63930424168444 431.7439731461703 395.7149832163564 457.77296307598414Q351.7906621910284 483.801953005798 298.075678974672 483.801953005798Q245.36069575831553 483.801953005798 201.43637473298747 457.77296307598414Q157.51205370765945 431.7439731461703 130.3260604211169 386.02898992981386Q103.14006713457431 340.31400671345745 99.14006713457431 281.2560268538297Z"/>
  </g>
</svg>
